<?xml version="1.0" encoding="UTF-8" standalone="no"?>
<!-- Created with Inkscape (http://www.inkscape.org/) -->

<svg
   version="1.1"
   id="svg105"
   width="225"
   height="225"
   viewBox="0 0 225 225"
   sodipodi:docname="acm.svg"
   inkscape:version="1.2.2 (b0a8486541, 2022-12-01)"
   xmlns:inkscape="http://www.inkscape.org/namespaces/inkscape"
   xmlns:sodipodi="http://sodipodi.sourceforge.net/DTD/sodipodi-0.dtd"
   xmlns="http://www.w3.org/2000/svg"
   xmlns:svg="http://www.w3.org/2000/svg">
  <defs
     id="defs109" />
  <sodipodi:namedview
     id="namedview107"
     pagecolor="#ffffff"
     bordercolor="#000000"
     borderopacity="0.25"
     inkscape:showpageshadow="2"
     inkscape:pageopacity="0.0"
     inkscape:pagecheckerboard="0"
     inkscape:deskcolor="#d1d1d1"
     showgrid="false"
     inkscape:zoom="2.4133333"
     inkscape:cx="112.5"
     inkscape:cy="112.5"
     inkscape:window-width="1854"
     inkscape:window-height="1011"
     inkscape:window-x="66"
     inkscape:window-y="32"
     inkscape:window-maximized="1"
     inkscape:current-layer="g111" />
  <g
     inkscape:groupmode="layer"
     inkscape:label="Image"
     id="g111">
    <g
       id="g403">
      <path
         style="fill:#f78503"
         d="M 9.6666667,211.33333 C 8.5330933,210.19976 8.9010538,104.85612 10.06789,96.466875 11.817936,83.884508 14.746626,74.090164 19.925595,63.5 36.809721,28.974655 68.930788,7.6761053 107.46428,5.4556316 157.08227,2.5964189 202.94087,38.200184 213.11169,87.478316 c 1.68938,8.185164 1.86325,14.376454 1.87517,66.771684 L 215,212 H 112.66667 C 56.383333,212 10.033333,211.7 9.6666667,211.33333 Z M 127,169.44303 c 10.99266,-2.58313 20.57838,-7.99451 29.09509,-16.42491 C 169.07704,140.16773 175,126.11495 175,108.16444 175,88.781605 167.18367,71.885984 152.59989,59.744851 121.19631,33.601064 73.228892,43.935845 55.407144,80.685433 38.019668,116.53952 58.028052,159.22992 97,169.42901 c 7.28492,1.90649 21.91737,1.91332 30,0.014 z M 98.788378,163.44859 C 79.62039,158.80129 64.038513,143.94294 57.418834,124 54.693226,115.78863 54.854172,100.62336 57.765612,91.324637 63.778196,72.121307 80.859684,56.680182 100.75428,52.46424 109.3106,50.651036 114.71796,50.660582 123.5,52.5044 c 26.48082,5.559719 45.5,28.834122 45.5,55.67985 0,15.56396 -5.50247,28.52352 -16.91392,39.83611 -4.17234,4.13621 -9.91504,8.75854 -12.76156,10.27186 -11.41247,6.06732 -28.0499,8.18367 -40.536142,5.15637 z M 75.532119,121.55103 C 77.5658,120.7013 79,120.5183 79,121.10852 c 0,0.56566 1.861436,0.8718 4.25,0.69898 L 87.5,121.5 87.813101,113 C 88.230353,101.6725 86.891993,97.270645 82.468757,95.422499 78.546037,93.783482 70.308962,93.551835 66.5651,94.975249 64.565282,95.735578 64,96.640654 64,99.082238 c 0,2.589262 0.303134,3.007462 1.75,2.414272 3.592394,-1.47281 10.230839,-1.757302 11.741929,-0.50321 2.480023,2.05824 1.805525,2.59904 -4.741929,3.802 -10.419216,1.91432 -14.06874,9.03981 -7.826923,15.28162 3.274573,3.27458 5.544912,3.59004 10.609042,1.47411 z m -3.865452,-5.2177 C 71.3,115.96667 71,114.66069 71,113.43116 c 0,-1.60837 0.883468,-2.54349 3.149223,-3.33333 1.732073,-0.60381 3.532073,-1.09783 4,-1.09783 1.294317,0 1.015164,5.43561 -0.349223,6.8 -1.293508,1.29351 -5.046786,1.61988 -6.133333,0.53333 z m 40.184113,5.56884 C 114.68521,120.91409 115,120.3988 115,116.74719 c 0,-3.85648 -0.0898,-3.97589 -1.81562,-2.41405 -3.11309,2.8173 -7.37478,3.09153 -10.45016,0.67244 C 100.52354,113.26666 100,112.04319 100,108.61598 c 0,-7.27082 5.03326,-10.526875 11,-7.11598 3.62426,2.07181 4,1.88162 4,-2.024751 0,-2.863456 -0.48125,-3.707722 -2.5651,-4.5 -7.30753,-2.778319 -17.507634,0.561242 -20.010542,6.551551 -1.639837,3.92468 -1.841523,9.24577 -0.485619,12.81207 2.578875,6.78296 11.945111,10.34059 19.912041,7.5633 z m 16.36301,-9.54605 c 0.23436,-7.89687 0.60323,-9.84332 2.03621,-10.74488 1.2737,-0.80135 2.2263,-0.80135 3.5,0 1.43298,0.90156 1.80185,2.84801 2.03621,10.74488 L 136.07242,122 H 140.53621 145 v -9.98095 c 0,-9.88808 0.0239,-9.98695 2.57322,-10.62678 1.41526,-0.35521 2.97194,-0.24711 3.45928,0.24023 0.48734,0.48734 1.0169,5.1569 1.17679,10.37679 L 152.5,121.5 l 4.25,0.3075 4.25,0.3075 v -10.60716 c 0,-13.838531 -1.75018,-17.515449 -8.33179,-17.504102 -1.19251,0.0021 -3.65887,0.912567 -5.48079,2.023357 l -3.31257,2.019619 -2.57229,-2.023357 c -3.13439,-2.465514 -7.04393,-2.593234 -10.26741,-0.335424 -1.70908,1.197086 -2.52501,1.342485 -2.80584,0.5 C 128.01152,95.53457 126.07083,95 123.91667,95 H 120 v 13.5 13.5 h 3.96379 3.96379 z"
         id="path407" />
      <path
         style="fill:#1b90d2"
         d="M 61.165913,159.66594 9.8366755,108.32944 60.580725,57.16472 C 88.489952,29.024124 111.83085,6 112.4494,6 c 0.61854,0 24.03391,22.973508 52.03416,51.05224 l 50.90955,51.05224 -51.44898,51.44898 -51.44898,51.44897 z M 127,169.44303 c 10.99266,-2.58313 20.57838,-7.99451 29.09509,-16.42491 C 169.07704,140.16773 175,126.11495 175,108.16444 175,88.781605 167.18367,71.885984 152.59989,59.744851 121.19631,33.601064 73.228892,43.935845 55.407144,80.685433 38.019668,116.53952 58.028052,159.22992 97,169.42901 c 7.28492,1.90649 21.91737,1.91332 30,0.014 z M 98.788378,163.44859 C 79.62039,158.80129 64.038513,143.94294 57.418834,124 54.693226,115.78863 54.854172,100.62336 57.765612,91.324637 63.778196,72.121307 80.859684,56.680182 100.75428,52.46424 109.3106,50.651036 114.71796,50.660582 123.5,52.5044 c 26.48082,5.559719 45.5,28.834122 45.5,55.67985 0,15.56396 -5.50247,28.52352 -16.91392,39.83611 -4.17234,4.13621 -9.91504,8.75854 -12.76156,10.27186 -11.41247,6.06732 -28.0499,8.18367 -40.536142,5.15637 z M 75.532119,121.55103 C 77.5658,120.7013 79,120.5183 79,121.10852 c 0,0.56566 1.861436,0.8718 4.25,0.69898 L 87.5,121.5 87.813101,113 C 88.230353,101.6725 86.891993,97.270645 82.468757,95.422499 78.546037,93.783482 70.308962,93.551835 66.5651,94.975249 64.565282,95.735578 64,96.640654 64,99.082238 c 0,2.589262 0.303134,3.007462 1.75,2.414272 3.592394,-1.47281 10.230839,-1.757302 11.741929,-0.50321 2.480023,2.05824 1.805525,2.59904 -4.741929,3.802 -10.419216,1.91432 -14.06874,9.03981 -7.826923,15.28162 3.274573,3.27458 5.544912,3.59004 10.609042,1.47411 z m -3.865452,-5.2177 C 71.3,115.96667 71,114.66069 71,113.43116 c 0,-1.60837 0.883468,-2.54349 3.149223,-3.33333 1.732073,-0.60381 3.532073,-1.09783 4,-1.09783 1.294317,0 1.015164,5.43561 -0.349223,6.8 -1.293508,1.29351 -5.046786,1.61988 -6.133333,0.53333 z m 40.184113,5.56884 C 114.68521,120.91409 115,120.3988 115,116.74719 c 0,-3.85648 -0.0898,-3.97589 -1.81562,-2.41405 -3.11309,2.8173 -7.37478,3.09153 -10.45016,0.67244 C 100.52354,113.26666 100,112.04319 100,108.61598 c 0,-7.27082 5.03326,-10.526875 11,-7.11598 3.62426,2.07181 4,1.88162 4,-2.024751 0,-2.863456 -0.48125,-3.707722 -2.5651,-4.5 -7.30753,-2.778319 -17.507634,0.561242 -20.010542,6.551551 -1.639837,3.92468 -1.841523,9.24577 -0.485619,12.81207 2.578875,6.78296 11.945111,10.34059 19.912041,7.5633 z m 16.36301,-9.54605 c 0.23436,-7.89687 0.60323,-9.84332 2.03621,-10.74488 1.2737,-0.80135 2.2263,-0.80135 3.5,0 1.43298,0.90156 1.80185,2.84801 2.03621,10.74488 L 136.07242,122 H 140.53621 145 v -9.98095 c 0,-9.88808 0.0239,-9.98695 2.57322,-10.62678 1.41526,-0.35521 2.97194,-0.24711 3.45928,0.24023 0.48734,0.48734 1.0169,5.1569 1.17679,10.37679 L 152.5,121.5 l 4.25,0.3075 4.25,0.3075 v -10.60716 c 0,-13.838531 -1.75018,-17.515449 -8.33179,-17.504102 -1.19251,0.0021 -3.65887,0.912567 -5.48079,2.023357 l -3.31257,2.019619 -2.57229,-2.023357 c -3.13439,-2.465514 -7.04393,-2.593234 -10.26741,-0.335424 -1.70908,1.197086 -2.52501,1.342485 -2.80584,0.5 C 128.01152,95.53457 126.07083,95 123.91667,95 H 120 v 13.5 13.5 h 3.96379 3.96379 z"
         id="path405" />
    </g>
  </g>
</svg>
