<?xml version="1.0" encoding="UTF-8" standalone="no"?>
<!-- Created with Inkscape (http://www.inkscape.org/) -->

<svg
   version="1.1"
   id="svg105"
   width="225"
   height="225"
   viewBox="0 0 225 225"
   sodipodi:docname="acm.svg"
   inkscape:version="1.2.2 (b0a8486541, 2022-12-01)"
   inkscape:export-filename="acm.png"
   inkscape:export-xdpi="426.66666"
   inkscape:export-ydpi="426.66666"
   xmlns:inkscape="http://www.inkscape.org/namespaces/inkscape"
   xmlns:sodipodi="http://sodipodi.sourceforge.net/DTD/sodipodi-0.dtd"
   xmlns="http://www.w3.org/2000/svg"
   xmlns:svg="http://www.w3.org/2000/svg">
  <defs
     id="defs109" />
  <sodipodi:namedview
     id="namedview107"
     pagecolor="#ffffff"
     bordercolor="#000000"
     borderopacity="0.25"
     inkscape:showpageshadow="2"
     inkscape:pageopacity="0.0"
     inkscape:pagecheckerboard="0"
     inkscape:deskcolor="#d1d1d1"
     showgrid="false"
     inkscape:zoom="3.4129687"
     inkscape:cx="101.37802"
     inkscape:cy="109.14252"
     inkscape:window-width="1854"
     inkscape:window-height="1011"
     inkscape:window-x="66"
     inkscape:window-y="32"
     inkscape:window-maximized="1"
     inkscape:current-layer="g403"
     showguides="false" />
  <g
     inkscape:groupmode="layer"
     inkscape:label="Image"
     id="g111">
    <g
       id="g403">
      <rect
         style="display:inline;fill:#ffffff"
         id="rect569"
         width="143.79842"
         height="143.40379"
         x="39.771233"
         y="42.008926" />
      <path
         style="display:inline;fill:#f78503"
         d="M 9.6666667,211.33333 C 8.5330933,210.19976 8.9010538,104.85612 10.06789,96.466875 11.817936,83.884508 14.746626,74.090164 19.925595,63.5 36.809721,28.974655 68.930788,7.6761053 107.46428,5.4556316 157.08227,2.5964189 202.94087,38.200184 213.11169,87.478316 c 1.68938,8.185164 1.86325,14.376454 1.87517,66.771684 L 215,212 H 112.66667 C 56.383333,212 10.033333,211.7 9.6666667,211.33333 Z M 127,169.44303 c 10.99266,-2.58313 20.57838,-7.99451 29.09509,-16.42491 C 169.07704,140.16773 175,126.11495 175,108.16444 175,88.781605 167.18367,71.885984 152.59989,59.744851 121.19631,33.601064 73.228892,43.935845 55.407144,80.685433 38.019668,116.53952 58.028052,159.22992 97,169.42901 c 7.28492,1.90649 21.91737,1.91332 30,0.014 z M 98.788378,163.44859 C 79.62039,158.80129 64.038513,143.94294 57.418834,124 54.693226,115.78863 54.854172,100.62336 57.765612,91.324637 63.778196,72.121307 80.859684,56.680182 100.75428,52.46424 109.3106,50.651036 114.71796,50.660582 123.5,52.5044 c 26.48082,5.559719 45.5,28.834122 45.5,55.67985 0,15.56396 -5.50247,28.52352 -16.91392,39.83611 -4.17234,4.13621 -9.91504,8.75854 -12.76156,10.27186 -11.41247,6.06732 -28.0499,8.18367 -40.536142,5.15637 z"
         id="path407"
         sodipodi:nodetypes="sssssscsssssssssssssssssss" />
      <path
         style="display:inline;fill:#1b90d2"
         d="M 61.165913,159.66594 9.5575523,108.31875 60.580725,57.16472 C 88.569962,29.103703 111.83085,6 112.4494,6 c 0.61854,0 24.03391,22.973508 52.03416,51.05224 l 50.28283,51.01805 -50.82226,51.48317 -51.44898,51.44897 z M 127,169.44303 c 10.99266,-2.58313 20.57838,-7.99451 29.09509,-16.42491 C 169.07704,140.16773 175,126.11495 175,108.16444 175,88.781605 167.18367,71.885984 152.59989,59.744851 121.19631,33.601064 73.228892,43.935845 55.407144,80.685433 38.019668,116.53952 58.028052,159.22992 97,169.42901 c 7.28492,1.90649 21.91737,1.91332 30,0.014 z M 98.788378,163.44859 C 79.62039,158.80129 64.038513,143.94294 57.418834,124 54.693226,115.78863 54.854172,100.62336 57.765612,91.324637 63.778196,72.121307 80.859684,56.680182 100.75428,52.46424 109.3106,50.651036 114.71796,50.660582 123.5,52.5044 c 26.48082,5.559719 45.5,28.834122 45.5,55.67985 0,15.56396 -5.50247,28.52352 -16.91392,39.83611 -4.17234,4.13621 -9.91504,8.75854 -12.76156,10.27186 -11.41247,6.06732 -28.0499,8.18367 -40.536142,5.15637 z"
         id="path405"
         inkscape:label="path405"
         sodipodi:nodetypes="ccsssccccsssssssssssssssss" />
      <g
         aria-label="acm"
         id="text221"
         style="font-size:49.3333px;display:inline">
        <path
           d="m 79.352253,114.8348 v -5.63671 q -2.143879,0.21679 -3.468748,0.38541 -1.324869,0.14453 -2.601561,0.60221 -1.108072,0.38542 -1.734374,1.18034 -0.602213,0.77084 -0.602213,2.07162 0,1.90299 1.011718,2.62565 1.035807,0.69856 3.035154,0.69856 1.108073,0 2.264322,-0.50586 1.156249,-0.50586 2.095702,-1.42122 z m 0,4.1914 q -0.867187,0.72266 -1.565754,1.30078 -0.674479,0.57813 -1.830728,1.15625 -1.132161,0.55404 -2.216145,0.8431 -1.059895,0.28906 -2.986977,0.28906 -3.589191,0 -5.973955,-2.40885 -2.360675,-2.40885 -2.360675,-6.07031 0,-3.01106 1.204426,-4.86588 1.204426,-1.85482 3.468748,-2.9388 2.28841,-1.10807 5.468095,-1.54167 3.179686,-0.43359 6.841142,-0.67447 v -0.14454 q 0,-2.24023 -1.662109,-3.08333 -1.638019,-0.86718 -4.938147,-0.86718 -1.493489,0 -3.492837,0.55403 -1.999347,0.52995 -3.902341,1.37305 H 64.68234 v -6.527992 q 1.252604,-0.361328 4.046873,-0.843098 2.794269,-0.505859 5.636715,-0.505859 6.985672,0 10.165358,2.336587 3.203774,2.312498 3.203774,7.082022 v 18.40364 h -8.382807 z"
           style="font-weight:bold;font-family:Tahoma;-inkscape-font-specification:'Tahoma Bold';fill:#ffffff"
           id="path430" />
        <path
           d="m 107.24677,122.61539 q -3.34831,0 -6.14258,-0.84309 -2.770178,-0.8431 -4.817703,-2.60157 -2.023436,-1.75846 -3.155597,-4.4082 -1.13216,-2.67382 -1.13216,-6.2871 0,-3.87825 1.228514,-6.60026 1.228515,-2.722 3.324217,-4.480463 2.023436,-1.686197 4.745439,-2.481118 2.74609,-0.81901 5.70898,-0.81901 2.24023,0 4.48047,0.529948 2.24023,0.505859 4.50455,1.63802 v 7.226553 h -1.08398 q -0.50586,-0.48177 -1.25261,-1.05989 -0.72265,-0.57813 -1.58984,-1.0599 -0.91536,-0.50585 -2.07161,-0.84309 -1.15625,-0.36133 -2.57747,-0.36133 -3.22787,0 -5.01042,2.26432 -1.75846,2.24023 -1.75846,6.04622 0,4.07096 1.87891,6.07031 1.90299,1.99935 5.0345,1.99935 1.58984,0 2.79427,-0.36133 1.20442,-0.36133 2.07161,-0.86719 0.8431,-0.50586 1.44531,-1.03581 0.60221,-0.55403 1.03581,-0.98763 h 1.08398 v 7.22656 q -0.72265,0.31315 -1.6862,0.72266 -0.93945,0.4095 -1.92708,0.67448 -1.22851,0.33724 -2.3125,0.50586 -1.05989,0.1927 -2.81835,0.1927 z"
           style="font-weight:bold;font-family:Tahoma;-inkscape-font-specification:'Tahoma Bold';fill:#ffffff"
           id="path432" />
        <path
           d="m 152.3164,121.89274 v -13.51366 q 0,-1.99935 -0.0723,-3.3724 -0.0723,-1.37304 -0.43359,-2.24023 -0.36133,-0.86719 -1.13216,-1.2526 -0.74675,-0.40951 -2.11979,-0.40951 -0.96354,0 -1.903,0.43359 -0.93945,0.40951 -2.04752,1.18034 v 19.17447 h -8.47916 v -13.51366 q 0,-1.97526 -0.0964,-3.34831 -0.0723,-1.39713 -0.43359,-2.26432 -0.36133,-0.86719 -1.13216,-1.2526 -0.74674,-0.40951 -2.0957,-0.40951 -1.03581,0 -2.02344,0.48177 -0.98763,0.48177 -1.92708,1.13216 v 19.17447 H 119.9896 V 94.841323 h 8.43098 v 2.986978 q 2.07161,-1.758463 3.90234,-2.746092 1.83073,-0.98763 4.11914,-0.98763 2.48112,0 4.36002,1.180338 1.87891,1.180338 2.86654,3.516925 2.43294,-2.264322 4.57682,-3.468748 2.16797,-1.228515 4.38411,-1.228515 1.8789,0 3.37239,0.602213 1.49349,0.602213 2.5293,1.80664 1.13216,1.30078 1.6862,3.10742 0.57812,1.782548 0.57812,4.673178 v 17.60871 z"
           style="font-weight:bold;font-family:Tahoma;-inkscape-font-specification:'Tahoma Bold';fill:#ffffff"
           id="path434" />
      </g>
    </g>
  </g>
</svg>
